<svg id="Layer_1" enable-background="new 0 0 512 512" height="512" viewBox="0 0 512 512" width="512" xmlns="http://www.w3.org/2000/svg"><path fill="#20133f" d="m495.929 303.255c-9.565-11.137-22.528-18.801-36.77-21.813-4.254-47.493-24.788-91.577-58.911-125.691-10.946-10.947-23.132-20.645-36.248-28.851v-2.9-9.17c0-23.617-19.214-42.83-42.83-42.83h-5.17v-3.415c0-28.995-23.59-52.585-52.585-52.585h-14.83c-28.995 0-52.585 23.59-52.585 52.585v3.415h-5.17c-23.616 0-42.83 19.213-42.83 42.83v9.17 2.899c-28.489 17.812-52.336 42.562-69.059 71.703-14.551 25.359-23.421 53.684-26.079 82.838-12.631 2.654-24.103 8.864-33.33 18.091-12.595 12.595-19.532 29.332-19.532 47.129 0 17.386 6.653 33.843 18.734 46.34l50.06 51.79c31.465 32.545 75.472 51.21 120.736 51.21h132.94c45.265 0 89.271-18.665 120.736-51.21l50.059-51.789c5.979-6.18 10.646-13.364 13.873-21.351 3.227-7.974 4.862-16.382 4.862-24.99 0-15.923-5.708-31.338-16.071-43.405zm-174.759-223.255c19.205 0 34.83 15.625 34.83 34.83v9.17 5.13 90.87c0 2.209 1.791 4 4 4s4-1.791 4-4v-83.568c10.992 7.278 21.265 15.649 30.592 24.977 37.02 37.01 57.408 86.229 57.408 138.591v14.81c0 46.974-38.216 85.19-85.19 85.19h-14.006c-.183-1.598-.428-3.196-.768-4.789l-23.837-126.702c-.006-.033-.013-.066-.02-.099-8.081-37.713-12.179-76.391-12.179-114.958v-73.452zm-117.17-11.415c0-24.584 20.001-44.585 44.585-44.585h14.83c24.584 0 44.585 20.001 44.585 44.585v84.867c0 39.113 4.153 78.338 12.346 116.586l23.837 126.702c.006.033.013.066.02.099 2.662 12.421-.392 25.21-8.378 35.088-7.985 9.879-19.851 15.544-32.554 15.544h-94.541c-12.703 0-24.568-5.666-32.554-15.544s-11.04-22.668-8.378-35.088c.007-.033.014-.066.02-.099l23.837-126.702c8.192-38.248 12.345-77.473 12.345-116.586zm-56 67.832v83.583c0 2.209 1.791 4 4 4s4-1.791 4-4v-90.87-5.13-9.17c0-19.205 15.625-34.83 34.83-34.83h5.17v73.452c0 38.567-4.098 77.245-12.179 114.958-.007.033-.014.066-.02.099l-23.837 126.702c-.34 1.593-.585 3.191-.768 4.789h-14.006c-46.974 0-85.19-38.216-85.19-85.19v-14.81c0-66.518 32.762-127.135 88-163.583zm351.721 232.235c-2.84 7.03-6.946 13.351-12.207 18.788l-50.06 51.79c-29.966 30.994-71.876 48.77-114.984 48.77h-132.94c-43.108 0-85.019-17.776-114.984-48.77l-50.06-51.79c-10.632-10.998-16.486-25.48-16.486-40.78 0-15.66 6.104-30.388 17.188-41.471 7.575-7.575 16.865-12.838 27.094-15.407-.17 3.399-.282 6.805-.282 10.218v14.81c0 51.385 41.805 93.19 93.19 93.19h13.737c.487 10.468 4.263 20.589 11.026 28.956 9.512 11.767 23.646 18.515 38.775 18.515h94.541c15.13 0 29.264-6.748 38.775-18.515 6.764-8.366 10.539-18.488 11.026-28.956h13.737c51.386 0 93.19-41.805 93.19-93.19v-14.81c0-3.419-.084-6.825-.25-10.215 25.922 6.489 44.25 29.652 44.25 56.875.003 7.575-1.436 14.974-4.276 21.992z"/></svg>