<svg id="Layer_1" enable-background="new 0 0 516 516" height="512" viewBox="0 0 516 516" width="512" xmlns="http://www.w3.org/2000/svg"><g><path fill="#20133f" d="m512 426h-64v-76c0-2.209-1.791-4-4-4h-84v-76c0-2.209-1.791-4-4-4h-84v-76c0-2.209-1.791-4-4-4h-84v-76c0-2.209-1.791-4-4-4h-176c-2.209 0-4 1.791-4 4v80 80 80 80 80c0 2.209 1.791 4 4 4h176 176 156c2.209 0 4-1.791 4-4v-80c0-2.209-1.791-4-4-4zm-72 0h-84-84v-72h84 84zm-260 0h-84v-72h84 84v72zm-172 0v-72h80v72zm168-80h-84-84v-72h84 84zm-88-80h-80v-72h80zm264 80h-84-84v-72h84 84zm-88-80h-84-84v-72h84 84zm-256-152h168v72h-84-84zm0 320h84 84v72h-168zm176 0h84 84v72h-168zm324 72h-148v-72h84 64z"/><path fill="#20133f" d="m374.51 131.635h45.49v24.403c-9.118 1.858-16 9.938-16 19.597v32c0 11.028 8.972 20 20 20s20-8.972 20-20v-32c0-9.658-6.882-17.739-16-19.597v-24.403h45.49c2.796 0 5.38-1.397 6.911-3.737 1.531-2.341 1.776-5.268.655-7.83l-49.491-113.12c-1.335-3.052-4.234-4.948-7.565-4.948s-6.23 1.896-7.565 4.948l-49.49 113.12c-1.121 2.563-.876 5.49.655 7.83 1.53 2.34 4.114 3.737 6.91 3.737zm61.49 44v32c0 6.617-5.383 12-12 12s-12-5.383-12-12v-32c0-6.617 5.383-12 12-12s12 5.383 12 12zm-61.726-52.361 49.49-113.119c.034-.08.068-.155.236-.155s.202.075.236.155l49.49 113.119c.021.048.056.128-.021.245-.076.116-.164.116-.216.116h-45.489v-20c0-2.209-1.791-4-4-4s-4 1.791-4 4v20h-45.49c-.052 0-.14 0-.216-.116-.076-.117-.041-.197-.02-.245z"/></g></svg>