<svg id="Layer_1" enable-background="new 0 0 512 512" height="512" viewBox="0 0 512 512" width="512" xmlns="http://www.w3.org/2000/svg"><g><path fill="#20133f" d="m388 367.883v-63.883-35.383c0-23.682-15.24-44.165-37.923-50.97l-9.854-2.957c-19.274-5.782-32.223-23.186-32.223-43.307v-119.383c0-28.673-23.327-52-52-52s-52 23.327-52 52v119.383c0 20.121-12.949 37.525-32.222 43.308l-9.854 2.957c-22.684 6.804-37.924 27.288-37.924 50.969v35.383 63.883l-7.994 139.889c-.063 1.099.33 2.175 1.085 2.975.756.801 1.808 1.254 2.908 1.254h272c1.101 0 2.152-.453 2.908-1.254.755-.8 1.148-1.876 1.085-2.975zm-256-59.883h248v24h-108c-2.209 0-4 1.791-4 4s1.791 4 4 4h108v24h-248zm0-39.383c0-20.121 12.949-37.525 32.222-43.308l9.854-2.957c22.684-6.804 37.924-27.288 37.924-50.969v-119.383c0-24.262 19.738-44 44-44s44 19.738 44 44v119.383c0 23.682 15.24 44.165 37.923 50.97l9.854 2.957c19.274 5.782 32.223 23.186 32.223 43.307v31.383h-248zm235.62 235.383-7.64-76.398c-.22-2.198-2.187-3.805-4.378-3.582-2.198.22-3.802 2.181-3.582 4.379l7.56 75.601h-39.58v-76c0-2.209-1.791-4-4-4s-4 1.791-4 4v76h-32v-76c0-2.209-1.791-4-4-4s-4 1.791-4 4v76h-32v-76c0-2.209-1.791-4-4-4s-4 1.791-4 4v76h-32v-76c0-2.209-1.791-4-4-4s-4 1.791-4 4v76h-39.58l7.56-75.602c.22-2.198-1.384-4.159-3.582-4.379-2.193-.217-4.158 1.384-4.378 3.582l-7.64 76.399h-20.145l7.542-132h248.444l7.542 132z"/><path fill="#20133f" d="m256 32c-11.028 0-20 8.972-20 20s8.972 20 20 20 20-8.972 20-20-8.972-20-20-20zm0 32c-6.617 0-12-5.383-12-12s5.383-12 12-12 12 5.383 12 12-5.383 12-12 12z"/></g></svg>