<svg height="412pt" viewBox="-57 0 412 412.399" width="412pt" xmlns="http://www.w3.org/2000/svg"><path fill="#20133f" d="m286.777344 213.328125h-42.773438l-11.597656-196.019531c-.574219-9.707032-8.640625-17.308594-18.359375-17.308594h-136.128906c-9.664063 0-17.726563 7.554688-18.355469 17.199219l-12.761719 196.128906h-36.140625c-5.769531 0-10.460937 4.691406-10.460937 10.460937v37.40625c0 5.765626 4.691406 10.457032 10.460937 10.457032h13.910156v13.449218c0 7.894532 6.421876 14.320313 14.316407 14.320313h7.683593v105.234375c0 4.269531 3.472657 7.742188 7.742188 7.742188h10.019531c4.269531 0 7.742188-3.472657 7.742188-7.742188v-105.234375h146.632812v105.234375c0 4.269531 3.472657 7.742188 7.742188 7.742188h10.019531c4.269531 0 7.742188-3.472657 7.742188-7.742188v-105.234375h14.335937c7.894531 0 14.320313-6.421875 14.320313-14.320313v-13.449218h13.910156c5.765625 0 10.457031-4.6875 10.457031-10.457032v-37.40625c0-5.769531-4.691406-10.460937-10.457031-10.460937zm-220.027344-195.664063c.378906-5.867187 5.289062-10.464843 11.167969-10.464843h136.128906c5.914063 0 10.824219 4.628906 11.171875 10.535156l11.574219 195.59375h-182.78125zm-1.875 386.992188c0 .300781-.242188.542969-.542969.542969h-10.019531c-.296875 0-.539062-.242188-.539062-.542969v-105.234375h11.101562zm172.136719 0c0 .300781-.242188.542969-.542969.542969h-10.019531c-.296875 0-.539063-.242188-.539063-.542969v-105.234375h11.101563zm28.65625-119.554688c0 3.925782-3.195313 7.121094-7.121094 7.121094h-219.660156c-3.921875 0-7.117188-3.195312-7.117188-7.121094v-13.449218h233.898438zm24.367187-23.90625c0 1.796876-1.460937 3.257813-3.257812 3.257813h-276.117188c-1.796875 0-3.261718-1.460937-3.261718-3.257813v-37.40625c0-1.796874 1.464843-3.257812 3.261718-3.257812h276.117188c1.796875 0 3.257812 1.460938 3.257812 3.257812zm0 0"/></svg>