<svg height="460pt" viewBox="-51 0 460 460.8" width="460pt" xmlns="http://www.w3.org/2000/svg"><path fill="#20133f" d="m341.972656 0c-9.339844 0-16.9375 7.601562-16.9375 16.941406v76.445313h-22.519531v-17.230469c0-3.652344-2.972656-6.625-6.625-6.625h-10.175781v-16.074219h10.175781c3.652344 0 6.625-2.972656 6.625-6.625v-17.230469c0-3.652343-2.972656-6.621093-6.625-6.621093h-91.152344c-3.652343 0-6.621093 2.96875-6.621093 6.621093v16.65625h-10.179688c-3.652344 0-6.621094 2.96875-6.621094 6.621094v17.230469c0 3.652344 2.96875 6.621094 6.621094 6.621094h10.179688v16.652343.003907h-60.660157v-85.542969c0-3.652344-2.972656-6.621094-6.621093-6.621094h-21.824219c-3.652344 0-6.625 2.96875-6.625 6.621094v85.542969h-10.335938v-70.097657c0-3.648437-2.972656-6.621093-6.625-6.621093h-21.820312c-3.652344 0-6.625 2.972656-6.625 6.621093v70.101563h-22.699219v-76.449219c0-9.34375-7.601562-16.941406-16.941406-16.941406s-16.941406 7.601562-16.941406 16.941406v426.917969c0 9.339844 7.601562 16.941406 16.941406 16.941406 9.34375 0 16.941406-7.601562 16.941406-16.941406v-2.257813h290.753906v2.257813c0 9.339844 7.597656 16.941406 16.941406 16.941406 9.339844 0 16.9375-7.601562 16.9375-16.941406v-426.917969c0-9.34375-7.597656-16.941406-16.941406-16.941406zm-314.890625 93.386719v159.578125h-.367187v28.324218h.367187v162.570313c0 5.371094-4.371093 9.742187-9.742187 9.742187s-9.742188-4.371093-9.742188-9.742187v-426.917969c0-5.371094 4.371094-9.742187 9.742188-9.742187s9.742187 4.371093 9.742187 9.742187zm268.234375-16.65625v16.078125h-90v-16.078125zm-90-46.550781h90v16.078124h-90zm-16.800781 39.351562v-16.074219h90v16.074219zm-78.929687-61.109375h20.671874v84.964844h-20.671874zm-45.40625 15.445313h20.671874v69.519531h-20.671874zm-29.898438 236.296874h290.386719v13.925782h-290.386719zm16.621094-7.199218v-84.964844h20.671875v84.96875h-20.671875zm44.746094 0v-84.964844h16.667968v84.96875h-16.667968zm24.527343 0v-71.765625h15.929688v71.769531h-15.929688zm42.65625-1.238282v-19.5625h84.96875v19.5625zm-128.550781 85.605469 43.671875 75.644531c.0625.105469.148437.195313.214844.300782h-43.886719zm4.617188-6.398437 13.925781-8.039063 45 77.941407-13.925781 8.039062zm286.136718 103.464844h-290.753906v-13.921876h290.753906zm-126.410156-41.820313v20.230469h-84.96875v-20.230469zm-66.605469-7.199219v-16h84.964844v16zm132.363281 27.425782v-76.039063h18.722657v76.039063zm25.921876 0v-84.964844h18.71875v84.964844zm34.730468.472656h-8.8125v-86.011719c0-3.652344-2.96875-6.625-6.621094-6.625h-19.875c-3.652343 0-6.621093 2.972656-6.621093 6.625v2.300781h-19.300781c-3.652344 0-6.621094 2.972656-6.621094 6.625v77.085938h-51.359375v-20.699219h11.738281c3.652344 0 6.625-2.972656 6.625-6.625v-17.148437c0-3.652344-2.972656-6.625-6.625-6.625h-86.117188c-3.652343 0-6.625 2.972656-6.625 6.625v16.574218h-11.738281c-3.652343 0-6.625 2.972656-6.625 6.625v21.273438h-15.777343l11.242187-6.492188c1.535156-.886718 2.628906-2.3125 3.085937-4.019531.460938-1.710937.222657-3.496094-.660156-5.027344l-45.578125-78.941406c-.882812-1.53125-2.3125-2.625-4.019531-3.085937-1.710938-.453126-3.492188-.222657-5.027344.664062l-14.917968 8.613281c-.191407.109375-.347657.246094-.523438.371094v-44.070313h290.753906zm0-160.3125h-42.082031c.191406-.246094.390625-.492188.550781-.769532l41.53125-71.933593zm-47.480468-4.867188-13.921876-8.039062 45-77.941406 13.921876 8.039062zm47.480468-84.824218-13.300781-7.679688c-1.53125-.882812-3.316406-1.121094-5.027344-.660156-1.710937.457031-3.136719 1.554687-4.019531 3.085937l-45.578125 78.9375c-.882813 1.53125-1.117187 3.316407-.660156 5.027344s1.554687 3.136719 3.085937 4.023437l12.054688 6.957032h-16.625c.023437-.21875.035156-.4375.035156-.664063v-20.714843c0-3.652344-2.972656-6.621094-6.621094-6.621094h-86.121094c-3.652343 0-6.625 2.96875-6.625 6.621094v20.714843c0 .226563.011719.445313.035157.664063h-12.363281v-72.34375c0-3.652344-2.972657-6.625-6.625-6.625h-17.082032c-.027344 0-.054687.007812-.082031.007812v-6.582031c0-3.652344-2.972656-6.625-6.625-6.625h-17.816406c-3.652344 0-6.625 2.972656-6.625 6.625v85.542969h-9.675781v-85.542969c0-3.652344-2.96875-6.625-6.621094-6.625h-21.824219c-3.652344 0-6.625 2.972656-6.625 6.625v85.542969h-9.421875v-131.253906h290.753906zm0-48.761719h-290.753906v-13.921875h290.75v13.921875zm26.679688 329.347656c0 5.371094-4.367188 9.742187-9.738282 9.742187-5.371093 0-9.742187-4.371093-9.742187-9.742187v-426.917969c0-5.371094 4.371094-9.742187 9.742187-9.742187 5.371094 0 9.738282 4.371093 9.738282 9.742187zm0 0"/></svg>