<svg height="453pt" viewBox="0 -88 453.597 453" width="453pt" xmlns="http://www.w3.org/2000/svg"><path fill="#20133f" d="m427.90625 156.601562c.703125-1.425781 1.109375-3.023437 1.109375-4.71875v-15.664062c0-10.757812-8.75-19.507812-19.507813-19.507812h-12.859374v-87.492188c0-15.945312-12.976563-28.921875-28.921876-28.921875h-281.046874c-15.949219 0-28.921876 12.976563-28.921876 28.921875v87.492188h-13.679687c-10.757813 0-19.507813 8.75-19.507813 19.507812v15.664062c0 1.695313.40625 3.296876 1.113282 4.722657-14.777344 4-25.683594 17.519531-25.683594 33.546875v46.683594c0 8.570312 6.96875 15.539062 15.539062 15.539062h32.246094v14.558594c0 5.164062 4.199219 9.367187 9.367188 9.367187h8.398437c5.164063 0 9.367188-4.203125 9.367188-9.367187v-14.558594h314.527343v14.558594c0 5.164062 4.199219 9.367187 9.367188 9.367187h8.398438c5.164062 0 9.367187-4.203125 9.367187-9.367187v-14.558594h21.480469c8.570312 0 15.539062-6.96875 15.539062-15.539062v-46.683594c.003906-16.03125-10.910156-29.554688-25.691406-33.550782zm-362.949219-127.382812c0-11.976562 9.742188-21.71875 21.722657-21.71875h281.046874c11.976563 0 21.722657 9.742188 21.722657 21.71875v86.574219h-42.644531v-9.546875c0-5.765625-4.691407-10.457032-10.457032-10.457032h-75.089844c-5.765624 0-10.453124 4.691407-10.453124 10.457032v9.546875h-47.203126v-9.546875c0-5.765625-4.6875-10.457032-10.453124-10.457032h-75.089844c-5.765625 0-10.457032 4.691407-10.457032 10.457032v9.546875h-42.644531zm274.644531 77.027344v9.546875h-81.597656v-9.546875c0-1.792969 1.457032-3.253906 3.253906-3.253906h75.089844c1.792969 0 3.253906 1.460937 3.253906 3.253906zm-143.199218 0v9.546875h-81.601563v-9.546875c0-1.792969 1.460938-3.253906 3.257813-3.253906h75.089844c1.792968 0 3.253906 1.460937 3.253906 3.253906zm-164.628906 29.972656c0-6.785156 5.519531-12.308594 12.304687-12.308594h365.429687c6.789063 0 12.308594 5.523438 12.308594 12.308594v15.664062c0 1.933594-1.570312 3.503907-3.5 3.503907h-383.042968c-1.929688 0-3.5-1.570313-3.5-3.503907zm35.945312 130.714844c0 1.191406-.972656 2.164062-2.167969 2.164062h-8.398437c-1.195313 0-2.167969-.972656-2.167969-2.164062v-13.914063h12.734375zm341.660156 0c0 1.191406-.972656 2.164062-2.167968 2.164062h-8.398438c-1.195312 0-2.167969-.972656-2.167969-2.164062v-13.914063h12.734375zm37.019532-30.097656c0 4.597656-3.738282 8.339843-8.335938 8.339843h-422.523438c-4.597656 0-8.339843-3.742187-8.339843-8.339843v-46.6875c0-15.191407 12.359375-27.554688 27.554687-27.554688h384.089844c15.195312 0 27.554688 12.363281 27.554688 27.554688zm0 0"/></svg>