<?xml version="1.0" encoding="iso-8859-1"?>
<!-- Generator: Adobe Illustrator 19.0.0, SVG Export Plug-In . SVG Version: 6.00 Build 0)  -->
<svg version="1.1" id="Capa_1" xmlns="http://www.w3.org/2000/svg" xmlns:xlink="http://www.w3.org/1999/xlink" x="0px" y="0px"
	 viewBox="0 0 409.601 409.601" style="enable-background:new 0 0 409.601 409.601;" xml:space="preserve">
<g>
	<g>
		<path fill="#20133f" d="M407.967,187.021L208.287,1.37c-1.971-1.823-5.012-1.823-6.973,0l-56.033,52.091V30.073c0-2.826-2.294-5.12-5.12-5.12
			h-49.92c-2.826,0-5.12,2.294-5.12,5.12v79.324L1.634,187.016c-1.541,1.434-2.048,3.666-1.28,5.622
			c0.768,1.961,2.662,3.246,4.767,3.246h27.945v208.589c0,2.831,2.289,5.125,5.12,5.125h333.235c2.826,0,5.12-2.294,5.12-5.12
			V195.889h27.94c2.104,0,3.994-1.285,4.767-3.246C410.015,190.687,409.508,188.455,407.967,187.021z M371.421,185.649
			c-2.826,0-5.12,2.294-5.12,5.12v208.589H43.306V190.769c0-2.826-2.294-5.12-5.12-5.12h-20.04v-0.005l75.576-70.267
			c1.044-0.968,1.633-2.33,1.633-3.748V35.198h39.68v30.019c0,2.038,1.208,3.881,3.077,4.695c1.853,0.804,4.035,0.44,5.535-0.947
			l61.153-56.858l186.655,173.542H371.421z"/>
	</g>
</g>
</svg>
