<?xml version="1.0" encoding="iso-8859-1"?>
<!-- Generator: Adobe Illustrator 19.0.0, SVG Export Plug-In . SVG Version: 6.00 Build 0)  -->
<svg version="1.1" id="Capa_1" xmlns="http://www.w3.org/2000/svg" xmlns:xlink="http://www.w3.org/1999/xlink" x="0px" y="0px"
	 viewBox="0 0 512 512" style="enable-background:new 0 0 512 512;" xml:space="preserve">
<g>
	<g>
		<path fill="#20133f" d="M395.278,252.814c19.313-18.636,31.389-44.721,31.389-73.614c0-56.463-45.933-102.4-102.4-102.4
			c-56.467,0-102.4,45.938-102.4,102.4c0,28.932,12.111,55.046,31.47,73.687c-23.015,9.427-44.191,23.39-61.82,41.026
			c-25.161,25.155-42.11,56.257-49.942,90.087H17.067v-42.667c0-38.692,15.083-75.129,42.45-102.579
			c14.424-14.346,31.91-25.474,50.659-32.669c15.409,10.301,33.25,15.782,51.957,15.782c14.2,0,27.792-3.1,40.417-9.217
			c4.233-2.054,6.008-7.158,3.958-11.4c-2.058-4.242-7.167-5.992-11.408-3.958c-10.275,4.983-21.367,7.508-32.967,7.508
			c-16.667,0-32.517-5.254-45.85-15.212C96.9,175.196,85.333,152.171,85.333,128c0-42.346,34.45-76.8,76.8-76.8
			c27.667,0,53.3,15.008,66.883,39.171c2.308,4.108,7.508,5.571,11.625,3.254c4.108-2.313,5.567-7.513,3.258-11.621
			c-16.617-29.529-47.942-47.871-81.767-47.871c-51.758,0-93.867,42.108-93.867,93.867c0,24.688,9.979,48.308,27.037,65.695
			c-17.629,8-33.98,19.199-47.845,32.984C16.85,257.375,0,298.092,0,341.333v51.2c0,4.713,3.817,8.533,8.533,8.533h129.934
			c-1.144,8.431-1.934,16.945-1.934,25.6v42.667c0,4.713,3.817,8.533,8.533,8.533h358.4c4.717,0,8.533-3.821,8.533-8.533v-42.667
			C512,349.49,465.675,281.406,395.278,252.814z M238.933,179.2c0-47.054,38.283-85.333,85.333-85.333
			c47.05,0,85.333,38.279,85.333,85.333c0,47.054-38.283,85.333-85.333,85.333C277.217,264.533,238.933,226.254,238.933,179.2z
			 M494.933,460.8H153.6v-34.133c0-45.596,17.75-88.458,49.983-120.688c18.348-18.353,40.896-32.34,65.362-40.741
			c15.974,10.307,34.938,16.362,55.321,16.362c20.37,0,39.321-6.047,55.287-16.341c69.142,23.599,115.379,87.92,115.379,161.407
			V460.8z"/>
	</g>
</g>
<g>
</g>
<g>
</g>
<g>
</g>
<g>
</g>
<g>
</g>
<g>
</g>
<g>
</g>
<g>
</g>
<g>
</g>
<g>
</g>
<g>
</g>
<g>
</g>
<g>
</g>
<g>
</g>
<g>
</g>
</svg>
