<svg id="Layer_1" enable-background="new 0 0 512 512" height="512" viewBox="0 0 512 512" width="512" xmlns="http://www.w3.org/2000/svg"><path fill="#20133f" d="m256 91.597c-90.649 0-164.401 73.75-164.401 164.403 0 90.649 73.752 164.401 164.401 164.401s164.401-73.752 164.401-164.401c0-90.653-73.752-164.403-164.401-164.403zm0 314.966c-83.023 0-150.563-67.541-150.563-150.563s67.54-150.565 150.563-150.565 150.563 67.542 150.563 150.565-67.54 150.563-150.563 150.563zm251.568-181.912-38.189-14.698c-5.532-25.779-15.59-50.05-29.946-72.248l16.622-37.423c1.162-2.615.59-5.678-1.432-7.7l-35.203-35.203c-2.027-2.027-5.095-2.59-7.698-1.43l-37.441 16.628c-22.194-14.354-46.455-24.414-72.225-29.946l-14.709-38.196c-1.027-2.671-3.595-4.435-6.455-4.435h-49.784c-2.86 0-5.428 1.764-6.455 4.435l-14.707 38.196c-25.766 5.532-50.032 15.59-72.23 29.946l-37.437-16.628c-2.604-1.16-5.676-.597-7.698 1.43l-35.203 35.204c-2.023 2.023-2.595 5.086-1.432 7.7l16.626 37.43c-14.356 22.2-24.414 46.466-29.946 72.236l-38.194 14.7c-2.671 1.031-4.432 3.596-4.432 6.459v49.784c0 2.86 1.761 5.428 4.432 6.455l38.189 14.703c5.532 25.775 15.59 50.045 29.95 72.243l-16.626 37.423c-1.162 2.617-.59 5.68 1.432 7.703l35.203 35.203c2.023 2.023 5.081 2.59 7.703 1.432l37.432-16.631c22.207 14.36 46.468 24.419 72.23 29.946l14.707 38.198c1.027 2.671 3.595 4.432 6.455 4.432h49.784c2.86 0 5.428-1.761 6.455-4.432l14.703-38.189c25.775-5.532 50.045-15.59 72.243-29.95l37.423 16.626c2.613 1.158 5.676.59 7.703-1.432l35.203-35.203c2.023-2.023 2.595-5.086 1.432-7.703l-16.631-37.437c14.36-22.198 24.414-46.459 29.946-72.225l38.198-14.707c2.671-1.027 4.432-3.595 4.432-6.455v-49.784c.002-2.863-1.759-5.428-4.43-6.457zm-9.406 51.489-37.297 14.36c-2.221.851-3.842 2.788-4.302 5.122-5.225 26.608-15.568 51.554-30.739 74.153-1.324 1.973-1.545 4.486-.581 6.662l16.234 36.559-28.482 28.482-36.545-16.23c-2.167-.959-4.689-.748-6.662.581-22.599 15.176-47.55 25.518-74.171 30.748-2.333.459-4.27 2.081-5.122 4.302l-14.356 37.284h-40.279l-14.36-37.297c-.851-2.221-2.788-3.842-5.122-4.302-26.604-5.225-51.554-15.568-74.158-30.739-1.973-1.329-4.495-1.541-6.662-.581l-36.554 16.234-28.482-28.482 16.23-36.545c.964-2.171.743-4.689-.581-6.662-15.176-22.599-25.518-47.55-30.748-74.171-.459-2.333-2.081-4.27-4.302-5.122l-37.283-14.356v-40.282l37.293-14.354c2.221-.856 3.842-2.791 4.302-5.124 5.225-26.613 15.568-51.565 30.743-74.16 1.324-1.975 1.545-4.493.581-6.667l-16.234-36.544 28.482-28.486 36.55 16.234c2.176.971 4.694.752 6.667-.579 22.599-15.171 47.55-25.516 74.158-30.743 2.333-.457 4.27-2.083 5.122-4.302l14.36-37.295h40.279l14.36 37.295c.851 2.218 2.788 3.845 5.122 4.302 26.613 5.23 51.563 15.574 74.153 30.743 1.973 1.331 4.5 1.55 6.662.579l36.559-16.234 28.482 28.484-16.23 36.538c-.964 2.173-.743 4.691.581 6.667 15.171 22.592 25.518 47.55 30.748 74.171.459 2.333 2.081 4.268 4.302 5.124l37.284 14.351v40.282z"/></svg>