<svg height="409pt" viewBox="-44 0 409 409.6" width="409pt" xmlns="http://www.w3.org/2000/svg"><path fill="#20133f" d="m5.421875 0c-2.832031 0-5.121094 2.289062-5.121094 5.121094v399.359375c0 2.828125 2.289063 5.121093 5.121094 5.121093h310.132813c2.832031 0 5.121093-2.292968 5.121093-5.121093v-399.359375c0-2.832032-2.289062-5.121094-5.121093-5.121094zm305.011719 399.359375h-299.894532v-389.121094h299.894532zm0 0"/><path fill="#20133f" d="m74.539062 321.65625h171.894532c2.832031 0 5.121094-2.292969 5.121094-5.121094 0-2.832031-2.289063-5.121094-5.121094-5.121094h-171.894532c-2.828124 0-5.117187 2.289063-5.117187 5.121094 0 2.828125 2.289063 5.121094 5.117187 5.121094zm0 0"/><path fill="#20133f" d="m74.539062 265.785156h171.894532c2.832031 0 5.121094-2.289062 5.121094-5.121094 0-2.828124-2.289063-5.117187-5.121094-5.117187h-171.894532c-2.828124 0-5.117187 2.289063-5.117187 5.117187 0 2.832032 2.289063 5.121094 5.117187 5.121094zm0 0"/><path fill="#20133f" d="m74.539062 209.921875h171.894532c2.832031 0 5.121094-2.292969 5.121094-5.121094 0-2.832031-2.289063-5.121093-5.121094-5.121093h-171.894532c-2.828124 0-5.117187 2.289062-5.117187 5.121093 0 2.828125 2.289063 5.121094 5.117187 5.121094zm0 0"/><path fill="#20133f" d="m74.539062 154.054688h171.894532c2.832031 0 5.121094-2.289063 5.121094-5.121094 0-2.828125-2.289063-5.117188-5.121094-5.117188h-171.894532c-2.828124 0-5.117187 2.289063-5.117187 5.117188 0 2.832031 2.289063 5.121094 5.117187 5.121094zm0 0"/><path fill="#20133f" d="m74.539062 98.183594h171.894532c2.832031 0 5.121094-2.289063 5.121094-5.117188 0-2.832031-2.289063-5.121094-5.121094-5.121094h-171.894532c-2.828124 0-5.117187 2.289063-5.117187 5.121094 0 2.828125 2.289063 5.117188 5.117187 5.117188zm0 0"/></svg>