<?xml version="1.0" encoding="iso-8859-1"?>
<!-- Generator: Adobe Illustrator 19.0.0, SVG Export Plug-In . SVG Version: 6.00 Build 0)  -->
<svg version="1.1" id="Capa_1" xmlns="http://www.w3.org/2000/svg" xmlns:xlink="http://www.w3.org/1999/xlink" x="0px" y="0px"
	 viewBox="0 0 409.138 409.138" style="enable-background:new 0 0 409.138 409.138;" xml:space="preserve">
<g>
	<g>
		<path fill="#20133f" d="M390.063,334.355l-47.949-80.102c17.106-26.409,26.317-57.19,26.317-89.4c0.01-44.052-17.147-85.468-48.297-116.618
			c-64.302-64.312-168.94-64.312-233.242,0c-31.15,31.15-48.307,72.571-48.307,116.618c0,32.84,9.544,64.205,27.295,90.947
			l-46.807,78.213c-0.932,1.562-0.968,3.497-0.097,5.089c0.87,1.592,2.519,2.606,4.337,2.662l74.281,2.237l33.347,62.101
			c0.87,1.623,2.55,2.657,4.388,2.698c0.041,0,0.082,0,0.118,0c1.797,0,3.466-0.947,4.393-2.488l46.413-77.532
			c5.74,0.599,11.5,0.927,17.265,0.927c6.359,0,12.713-0.41,19.036-1.142l46.746,78.085c0.932,1.546,2.596,2.488,4.393,2.488
			c0.041,0,0.082,0,0.118,0c1.838-0.046,3.523-1.075,4.388-2.698l33.347-62.095l74.281-2.237c1.812-0.056,3.466-1.07,4.337-2.662
			C391.036,337.847,390.995,335.917,390.063,334.355z M135.686,393.302l-30.474-56.755c-0.865-1.613-2.524-2.647-4.357-2.698
			l-68.516-2.058l40.054-66.918c4.439,5.791,9.252,11.356,14.5,16.599c24.95,24.95,55.967,40.172,88.34,45.763L135.686,393.302z
			 M94.137,274.231c-29.215-29.215-45.307-68.06-45.307-109.379c0-41.313,16.092-80.159,45.307-109.379
			c30.157-30.157,69.77-45.235,109.379-45.235c39.608,0,79.227,15.078,109.379,45.235c29.215,29.22,45.307,68.065,45.307,109.379
			c0,41.318-16.092,80.164-45.307,109.379C252.586,334.545,154.446,334.545,94.137,274.231z M308.286,334.191
			c-1.828,0.056-3.492,1.085-4.357,2.698l-30.474,56.755l-39.936-66.708c31.749-5.832,62.116-20.966,86.615-45.466
			c5.668-5.668,10.854-11.684,15.58-17.981l41.088,68.644L308.286,334.191z"/>
	</g>
</g>
<g>
	<g>
		<path fill="#20133f" d="M300.448,67.926c-53.448-53.448-140.411-53.448-193.859,0c-53.443,53.443-53.443,140.406,0,193.853
			c26.726,26.721,61.824,40.079,96.932,40.079s70.205-13.358,96.932-40.079C353.89,208.331,353.89,121.373,300.448,67.926z
			 M293.208,254.545c-49.459,49.449-129.92,49.449-179.379,0c-49.449-49.454-49.449-129.925,0-179.374
			c49.459-49.449,129.92-49.449,179.379,0C342.657,124.62,342.657,205.085,293.208,254.545z"/>
	</g>
</g>
<g>
</g>
<g>
</g>
<g>
</g>
<g>
</g>
<g>
</g>
<g>
</g>
<g>
</g>
<g>
</g>
<g>
</g>
<g>
</g>
<g>
</g>
<g>
</g>
<g>
</g>
<g>
</g>
<g>
</g>
</svg>
