<svg height="409.6pt" viewBox="0 0 409.6 409.6" width="409.6pt" xmlns="http://www.w3.org/2000/svg"><path fill="#20133f" d="m205.1875 135.902344c-40.753906 0-78.566406 22.09375-98.683594 57.65625-1.390625 2.460937-.523437 5.585937 1.9375 6.980468.796875.449219 1.660156.660157 2.515625.660157 1.785157 0 3.519531-.933594 4.464844-2.597657 18.296875-32.359374 52.695313-52.460937 89.765625-52.460937 37.0625 0 71.457031 20.097656 89.761719 52.449219 1.394531 2.460937 4.519531 3.332031 6.976562 1.933594 2.460938-1.386719 3.328125-4.511719 1.933594-6.972657-20.117187-35.5625-57.925781-57.648437-98.671875-57.648437zm0 0"/><path fill="#20133f" d="m205.183594 182.246094c-22.699219 0-43.769532 12.308594-54.976563 32.121094-1.390625 2.460937-.523437 5.585937 1.9375 6.976562.796875.453125 1.660157.664062 2.515625.664062 1.785156 0 3.519532-.933593 4.460938-2.601562 9.394531-16.605469 27.042968-26.917969 46.0625-26.917969 19.019531 0 36.667968 10.3125 46.0625 26.914063 1.390625 2.460937 4.523437 3.324218 6.976562 1.9375 2.460938-1.390625 3.328125-4.515625 1.933594-6.976563-11.203125-19.8125-32.269531-32.117187-54.972656-32.117187zm0 0"/><path fill="#20133f" d="m69.171875 177.183594c.792969.449218 1.660156.660156 2.511719.660156 1.785156 0 3.519531-.933594 4.464844-2.597656 26.304687-46.511719 75.75-75.40625 129.039062-75.40625 53.28125 0 102.722656 28.890625 129.03125 75.394531 1.394531 2.460937 4.527344 3.332031 6.980469 1.933594 2.460937-1.390625 3.324219-4.515625 1.933593-6.976563-28.121093-49.710937-80.980468-80.589844-137.945312-80.589844-56.972656 0-109.832031 30.882813-137.953125 80.601563-1.390625 2.460937-.527344 5.585937 1.9375 6.980469zm0 0"/><path fill="#20133f" d="m404.480469 0h-399.359375c-2.828125 0-5.121094 2.292969-5.121094 5.121094v32.59375c0 2.828125 2.292969 5.121094 5.121094 5.121094h6.996094v226.304687h-6.996094c-2.828125 0-5.121094 2.292969-5.121094 5.121094v32.597656c0 2.824219 2.292969 5.117187 5.121094 5.117187h194.558594v36.644532c-14.503907 2.449218-25.601563 15.066406-25.601563 30.257812 0 16.941406 13.78125 30.722656 30.722656 30.722656 16.9375 0 30.71875-13.78125 30.71875-30.722656 0-15.191406-11.09375-27.808594-25.597656-30.257812v-36.644532h194.558594c2.828125 0 5.121093-2.292968 5.121093-5.117187v-32.597656c0-2.828125-2.292968-5.121094-5.121093-5.121094h-6.996094v-226.304687h6.996094c2.828125 0 5.121093-2.292969 5.121093-5.121094v-32.59375c0-2.828125-2.292968-5.121094-5.121093-5.121094zm-179.199219 378.878906c0 11.292969-9.1875 20.480469-20.480469 20.480469s-20.480469-9.1875-20.480469-20.480469c0-11.292968 9.1875-20.480468 20.480469-20.480468s20.480469 9.1875 20.480469 20.480468zm174.078125-77.140625h-389.121094v-22.355469h389.121094zm-12.117187-32.597656h-364.882813v-226.304687h364.882813zm12.117187-236.546875h-389.121094v-22.355469h389.121094zm0 0"/></svg>