<svg id="Layer_1" data-name="Layer 1" xmlns="http://www.w3.org/2000/svg" xmlns:xlink="http://www.w3.org/1999/xlink" viewBox="0 0 780 160"><defs><style>.cls-1{fill:#e3e1e6;}.cls-2{fill:#20133f;}.cls-3{fill:#fff;}.cls-4{fill:url(#linear-gradient);}</style><linearGradient id="linear-gradient" x1="477.06" y1="-443.54" x2="476.43" y2="-535.77" gradientTransform="matrix(1, 0, 0, -1, 0, -358.72)" gradientUnits="userSpaceOnUse"><stop offset="0" stop-color="#fff"/><stop offset="1" stop-color="#2d4263"/></linearGradient></defs><path class="cls-1" d="M152.8,152.8C73.7,122,81.4,122,2.3,152.8L77.5,5.4Z"/><path class="cls-2" d="M154.8,151.8l-1.8-3.5L77.5.3.2,151.8h0a2.5,2.5,0,0,0,.4,2.6,2.3,2.3,0,0,0,2.5.6h0l10.4-4.1c64-25.1,64-25.1,128.1,0l10.4,4h.8a2.6,2.6,0,0,0,1.7-.7A2.3,2.3,0,0,0,154.8,151.8ZM77.5,127.3c-13.7,0-27.5,4.6-51,13.6,8.1-6.2,16-13.4,23.3-20.1,11.4-10.4,22.2-20.3,27.7-20.3s16.4,9.9,27.8,20.3c7.3,6.7,15.1,13.9,23.2,20.1C105.1,131.9,91.3,127.3,77.5,127.3Zm30.9-9.9C95.2,105.4,84.9,96,77.5,96s-17.7,9.4-30.8,21.4c-7.7,7.1-16.1,14.7-24.6,21.1,9.2-10.3,19.2-24,28.6-36.7S74,70.4,77.5,69.5c3.6.9,16.5,18.3,26.8,32.3s19.5,26.4,28.6,36.7C124.4,132.1,116.1,124.5,108.4,117.4ZM108,99.1C89.7,74.3,82.3,65,77.5,65S65.4,74.3,47.1,99.1c-9,12.2-19.3,26.1-28.4,36.5,8.1-12.5,18.8-30.3,31.7-52.1C61.3,65.2,73.5,44.6,77.5,39.7c4.1,4.9,16.3,25.5,27.2,43.8,12.9,21.8,23.6,39.7,31.7,52.1C127.3,125.2,117,111.3,108,99.1Zm.6-17.9c-25.5-43-28.3-46.8-31.1-46.8s-5.5,3.8-31,46.8C37,97.2,24.6,118,15.1,132.7L77.5,10.4,140,132.7C130.5,118,118.1,97.2,108.6,81.2Z"/><path class="cls-2" d="M273.7,41.2h9.1V105h-9.1Zm-22.8-4.5v4.6h18.2v68.4h18.3V41.2h18.2V36.7Z"/><path class="cls-2" d="M337.5,41.2h9.2V105h-9.2Zm-22.8-4.5v4.6H333v68.4h18.2V41.2h18.3V36.7Z"/><path class="cls-2" d="M554,41.3a35,35,0,0,1,15,3.8l-.8,1.1a37.9,37.9,0,0,0-7.1-.7,35.2,35.2,0,0,0-11.8,2h-.1c-11.1,4.3-18.5,12.8-20.8,23.8s.4,20.3,6.1,26.3a32.5,32.5,0,0,0,5.3,4.7,29.9,29.9,0,0,1-16.5-15h0A27.2,27.2,0,0,1,520,75.4a38.8,38.8,0,0,1,2.1-14c3.5-8.8,9.5-14.7,18.6-18.1a29.7,29.7,0,0,1,10.5-2.1H554Zm.1-4.6h-2.9a34.8,34.8,0,0,0-12.1,2.4,35.1,35.1,0,0,0-21.2,20.6,42.5,42.5,0,0,0-2.4,15.9,31.4,31.4,0,0,0,3.8,13.9c7.7,15.1,22.1,20.1,34.9,20.1s17.4-3,24.1-7.3l-6.7-2.5s-4.8,3.3-14.8,3.3h-.4c-8.2-.3-13.3-2.8-18.5-8.5-8.8-9-9.4-34,13-42.8A29.7,29.7,0,0,1,561.1,50a22.9,22.9,0,0,1,9,1.6l4.7-8.5A42.2,42.2,0,0,0,554.1,36.7Z"/><path class="cls-2" d="M606.7,41.2h9.1V105h-9.1Zm-22.8-4.5v4.6h18.2v68.4h18.2V41.2h18.3V36.7Z"/><path class="cls-2" d="M220.7,58.9l-24.6,46H185.3l29.1-58.5Zm2,4.3,22.5,45.4h0a1.4,1.4,0,0,0,1.4,1h4.3L214.4,36.7l-36.5,72.9h20.2a1.5,1.5,0,0,0,1.5-1Z"/><path class="cls-2" d="M485.2,58.9l-24.5,46H449.9l29-58.5Zm2.1,4.3,22.5,45.4h-.1a1.6,1.6,0,0,0,1.4,1h4.3L478.9,36.7l-36.4,72.9h20.1a1.5,1.5,0,0,0,1.5-1Z"/><path class="cls-2" d="M711.5,70.6a32.5,32.5,0,0,0-3.6-13.9c-3.6-7.1-9.7-11-16.3-14.4s-12.5-5.7-18.2-5.7A33.6,33.6,0,0,0,661.6,39,34.6,34.6,0,0,0,641,59.7a42.5,42.5,0,0,0-2.4,15.9,34,34,0,0,0,3.7,13.9c2.8,5.7,11.3,11.6,16.3,14.3s11.3,5.7,18,5.7a40.1,40.1,0,0,0,12-2.3c9.8-3.7,16.7-10.6,20.6-20.6A45.2,45.2,0,0,0,711.5,70.6ZM677.9,94.7C669,99,658.7,96.2,655.7,85s2.3-26.6,16.9-34.2c10-5.3,20.2-2.2,21.9,11.4S689.3,89.3,677.9,94.7Z"/><path class="cls-2" d="M749.2,41.3a21,21,0,0,1,21.1,21c0,13.3-11.2,18.6-11.2,18.6l13.2,24h-9.9L751.1,83.4H729.8V76.5h19.4a14.2,14.2,0,1,0,0-28.4H729.8V41.3Zm-23.9-4.6v72.9h3.4a1.1,1.1,0,0,0,1.1-1.2V87.9h18.6l10.9,21c.3.5.5.7,1,.7H780L765,82.5a25.6,25.6,0,0,0-15.8-45.8ZM729.8,72V52.7h19.4a9.7,9.7,0,0,1,0,19.4Z"/><path class="cls-2" d="M402.5,41.3a21,21,0,0,1,21.1,21c0,13.3-11.2,18.6-11.2,18.6l13.2,24h-9.8L404.5,83.4H383.2V76.5h19.3a14.2,14.2,0,1,0,0-28.4H383.2V41.3Zm-23.9-4.6v72.9H382a1.2,1.2,0,0,0,1.2-1.2V87.9h18.6l10.9,21a1,1,0,0,0,1,.7h19.6L418.4,82.5a25.6,25.6,0,0,0-15.9-45.8ZM383.2,72V52.7h19.3a9.7,9.7,0,0,1,0,19.4Z"/><path class="cls-3" d="M378.3,131h7.8c3.8,0,6.7,1.1,8.8,3.2s3.1,5,3.1,8.9-1,6.8-3.1,8.9-5,3.1-8.8,3.1h-7.8Zm7.7,22.3c3.2,0,5.7-.9,7.3-2.6s2.5-4.3,2.5-7.6c0-6.8-3.3-10.2-9.8-10.2h-5.6v20.4Zm30.5-6.2H403.9a7.1,7.1,0,0,0,1.7,4.8,5.6,5.6,0,0,0,4.3,1.6,8.5,8.5,0,0,0,5.5-2l.8,1.6a7.6,7.6,0,0,1-2.8,1.6,10.3,10.3,0,0,1-3.5.6,7.7,7.7,0,0,1-5.9-2.2,8.8,8.8,0,0,1-2.2-6.3,10.6,10.6,0,0,1,.9-4.5,7.1,7.1,0,0,1,2.8-3.1,7.7,7.7,0,0,1,4-1.1,6.1,6.1,0,0,1,5.1,2.2c1.3,1.4,1.9,3.3,1.9,5.9Zm-7-7.3a5,5,0,0,0-3.8,1.5,6.7,6.7,0,0,0-1.7,4.2h10.6a6.6,6.6,0,0,0-1.4-4.2A4.7,4.7,0,0,0,409.5,139.8Zm23.1-1.3h2.1l-7.1,16.6h-2.1l-7.1-16.6h2.2l6,14.5Zm18.8,8.6H438.8a7.7,7.7,0,0,0,1.6,4.8,5.8,5.8,0,0,0,4.4,1.6,8.9,8.9,0,0,0,5.5-2l.8,1.6a7.6,7.6,0,0,1-2.8,1.6,10.3,10.3,0,0,1-3.5.6,8.1,8.1,0,0,1-6-2.2,9.3,9.3,0,0,1-2.2-6.3,10.6,10.6,0,0,1,1-4.5,7.5,7.5,0,0,1,2.7-3.1,8.1,8.1,0,0,1,4.1-1.1,6.1,6.1,0,0,1,5.1,2.2,8.7,8.7,0,0,1,1.9,5.9Zm-7-7.3a4.9,4.9,0,0,0-3.8,1.5,6.7,6.7,0,0,0-1.7,4.2h10.5a6.6,6.6,0,0,0-1.3-4.2A4.7,4.7,0,0,0,444.4,139.8Zm11.2,15.3V131h2.1v24.1Zm14.1.2a7.4,7.4,0,0,1-4-1,6.6,6.6,0,0,1-2.7-3,9.5,9.5,0,0,1-1-4.6,9.3,9.3,0,0,1,1-4.5,6.6,6.6,0,0,1,2.7-3,7.5,7.5,0,0,1,4-1.1,7.7,7.7,0,0,1,4,1.1,7.2,7.2,0,0,1,2.7,3,10.6,10.6,0,0,1,.9,4.5,10.8,10.8,0,0,1-.9,4.6,7.2,7.2,0,0,1-2.7,3A7.7,7.7,0,0,1,469.7,155.3Zm0-1.8a5,5,0,0,0,4-1.7,7.8,7.8,0,0,0,1.5-5.1,7.2,7.2,0,0,0-1.5-4.9,4.7,4.7,0,0,0-4-1.9,4.6,4.6,0,0,0-4,1.9,7.2,7.2,0,0,0-1.5,4.9,8.4,8.4,0,0,0,1.4,5.1A5.2,5.2,0,0,0,469.7,153.5Zm19.7-15.4a7.1,7.1,0,0,1,3.9,1.1,6.7,6.7,0,0,1,2.6,3.1,11.7,11.7,0,0,1,0,9,7,7,0,0,1-2.6,3,7.1,7.1,0,0,1-3.9,1,6.7,6.7,0,0,1-3.5-.8,6.3,6.3,0,0,1-2.2-2.6v8.4h-2.1V138.5h2.1v3a6,6,0,0,1,2.2-2.5A6.8,6.8,0,0,1,489.4,138.1Zm-.3,15.4a5.2,5.2,0,0,0,4.1-1.7,7.6,7.6,0,0,0,1.5-5,7.5,7.5,0,0,0-1.5-5,4.7,4.7,0,0,0-4-1.9,5,5,0,0,0-4.1,1.8,8.2,8.2,0,0,0-1.4,5,8.4,8.4,0,0,0,1.4,5.1A5.1,5.1,0,0,0,489.1,153.5Zm30-15.4c3.6,0,5.5,2.2,5.5,6.5v10.5h-2.1V144.7a5.6,5.6,0,0,0-.9-3.6,3.5,3.5,0,0,0-2.8-1.1,4.6,4.6,0,0,0-3.6,1.5,5.7,5.7,0,0,0-1.3,4v9.6h-2.1V144.7a5.6,5.6,0,0,0-.9-3.6,3.5,3.5,0,0,0-2.8-1.1,4.6,4.6,0,0,0-3.6,1.5,6.2,6.2,0,0,0-1.3,4v9.6h-2.1V138.5h2.1v2.8a5.7,5.7,0,0,1,2-2.3,5.9,5.9,0,0,1,3.2-.9q4.1,0,5.1,3.3a5.6,5.6,0,0,1,2.2-2.4A6.4,6.4,0,0,1,519.1,138.1Zm24.4,9H531a7.1,7.1,0,0,0,1.6,4.8,5.7,5.7,0,0,0,4.4,1.6,8.4,8.4,0,0,0,5.4-2l.8,1.6a6.9,6.9,0,0,1-2.8,1.6,9.7,9.7,0,0,1-3.4.6,8.1,8.1,0,0,1-6-2.2,8.8,8.8,0,0,1-2.2-6.3,9.3,9.3,0,0,1,1-4.5,6.3,6.3,0,0,1,2.7-3.1,7.8,7.8,0,0,1,4.1-1.1,6.4,6.4,0,0,1,5.1,2.2,8.7,8.7,0,0,1,1.8,5.9Zm-6.9-7.3a5.3,5.3,0,0,0-3.9,1.5,7.3,7.3,0,0,0-1.7,4.2h10.6a6.1,6.1,0,0,0-1.4-4.2A4.5,4.5,0,0,0,536.6,139.8Zm18.9-1.7c4,0,6,2.2,6,6.5v10.5h-2.1V144.7a5.3,5.3,0,0,0-1-3.6,4,4,0,0,0-3.1-1.1,5.5,5.5,0,0,0-4,1.5,5.7,5.7,0,0,0-1.4,4v9.6h-2.1V138.5h2v2.9a5.4,5.4,0,0,1,2.3-2.4A6.4,6.4,0,0,1,555.5,138.1Zm18.1,15.5h1.5v1.7h-1.7a5.1,5.1,0,0,1-5.6-5.7v-9.4h-3.3v-1.7h3.3v-5.1h2.1v5.1h4.8v1.7h-4.8v9.2a4.6,4.6,0,0,0,.9,3.1A3.8,3.8,0,0,0,573.6,153.6Z"/><path class="cls-4" d="M378.3,131h7.8c3.8,0,6.7,1.1,8.8,3.2s3.1,5,3.1,8.9-1,6.8-3.1,8.9-5,3.1-8.8,3.1h-7.8Zm7.7,22.3c3.2,0,5.7-.9,7.3-2.6s2.5-4.3,2.5-7.6c0-6.8-3.3-10.2-9.8-10.2h-5.6v20.4Zm30.5-6.2H403.9a7.1,7.1,0,0,0,1.7,4.8,5.6,5.6,0,0,0,4.3,1.6,8.5,8.5,0,0,0,5.5-2l.8,1.6a7.6,7.6,0,0,1-2.8,1.6,10.3,10.3,0,0,1-3.5.6,7.7,7.7,0,0,1-5.9-2.2,8.8,8.8,0,0,1-2.2-6.3,10.6,10.6,0,0,1,.9-4.5,7.1,7.1,0,0,1,2.8-3.1,7.7,7.7,0,0,1,4-1.1,6.1,6.1,0,0,1,5.1,2.2c1.3,1.4,1.9,3.3,1.9,5.9Zm-7-7.3a5,5,0,0,0-3.8,1.5,6.7,6.7,0,0,0-1.7,4.2h10.6a6.6,6.6,0,0,0-1.4-4.2A4.7,4.7,0,0,0,409.5,139.8Zm23.1-1.3h2.1l-7.1,16.6h-2.1l-7.1-16.6h2.2l6,14.5Zm18.8,8.6H438.8a7.7,7.7,0,0,0,1.6,4.8,5.8,5.8,0,0,0,4.4,1.6,8.9,8.9,0,0,0,5.5-2l.8,1.6a7.6,7.6,0,0,1-2.8,1.6,10.3,10.3,0,0,1-3.5.6,8.1,8.1,0,0,1-6-2.2,9.3,9.3,0,0,1-2.2-6.3,10.6,10.6,0,0,1,1-4.5,7.5,7.5,0,0,1,2.7-3.1,8.1,8.1,0,0,1,4.1-1.1,6.1,6.1,0,0,1,5.1,2.2,8.7,8.7,0,0,1,1.9,5.9Zm-7-7.3a4.9,4.9,0,0,0-3.8,1.5,6.7,6.7,0,0,0-1.7,4.2h10.5a6.6,6.6,0,0,0-1.3-4.2A4.7,4.7,0,0,0,444.4,139.8Zm11.2,15.3V131h2.1v24.1Zm14.1.2a7.4,7.4,0,0,1-4-1,6.6,6.6,0,0,1-2.7-3,9.5,9.5,0,0,1-1-4.6,9.3,9.3,0,0,1,1-4.5,6.6,6.6,0,0,1,2.7-3,7.5,7.5,0,0,1,4-1.1,7.7,7.7,0,0,1,4,1.1,7.2,7.2,0,0,1,2.7,3,10.6,10.6,0,0,1,.9,4.5,10.8,10.8,0,0,1-.9,4.6,7.2,7.2,0,0,1-2.7,3A7.7,7.7,0,0,1,469.7,155.3Zm0-1.8a5,5,0,0,0,4-1.7,7.8,7.8,0,0,0,1.5-5.1,7.2,7.2,0,0,0-1.5-4.9,4.7,4.7,0,0,0-4-1.9,4.6,4.6,0,0,0-4,1.9,7.2,7.2,0,0,0-1.5,4.9,8.4,8.4,0,0,0,1.4,5.1A5.2,5.2,0,0,0,469.7,153.5Zm19.7-15.4a7.1,7.1,0,0,1,3.9,1.1,6.7,6.7,0,0,1,2.6,3.1,11.7,11.7,0,0,1,0,9,7,7,0,0,1-2.6,3,7.1,7.1,0,0,1-3.9,1,6.7,6.7,0,0,1-3.5-.8,6.3,6.3,0,0,1-2.2-2.6v8.4h-2.1V138.5h2.1v3a6,6,0,0,1,2.2-2.5A6.8,6.8,0,0,1,489.4,138.1Zm-.3,15.4a5.2,5.2,0,0,0,4.1-1.7,7.6,7.6,0,0,0,1.5-5,7.5,7.5,0,0,0-1.5-5,4.7,4.7,0,0,0-4-1.9,5,5,0,0,0-4.1,1.8,8.2,8.2,0,0,0-1.4,5,8.4,8.4,0,0,0,1.4,5.1A5.1,5.1,0,0,0,489.1,153.5Zm30-15.4c3.6,0,5.5,2.2,5.5,6.5v10.5h-2.1V144.7a5.6,5.6,0,0,0-.9-3.6,3.5,3.5,0,0,0-2.8-1.1,4.6,4.6,0,0,0-3.6,1.5,5.7,5.7,0,0,0-1.3,4v9.6h-2.1V144.7a5.6,5.6,0,0,0-.9-3.6,3.5,3.5,0,0,0-2.8-1.1,4.6,4.6,0,0,0-3.6,1.5,6.2,6.2,0,0,0-1.3,4v9.6h-2.1V138.5h2.1v2.8a5.7,5.7,0,0,1,2-2.3,5.9,5.9,0,0,1,3.2-.9q4.1,0,5.1,3.3a5.6,5.6,0,0,1,2.2-2.4A6.4,6.4,0,0,1,519.1,138.1Zm24.4,9H531a7.1,7.1,0,0,0,1.6,4.8,5.7,5.7,0,0,0,4.4,1.6,8.4,8.4,0,0,0,5.4-2l.8,1.6a6.9,6.9,0,0,1-2.8,1.6,9.7,9.7,0,0,1-3.4.6,8.1,8.1,0,0,1-6-2.2,8.8,8.8,0,0,1-2.2-6.3,9.3,9.3,0,0,1,1-4.5,6.3,6.3,0,0,1,2.7-3.1,7.8,7.8,0,0,1,4.1-1.1,6.4,6.4,0,0,1,5.1,2.2,8.7,8.7,0,0,1,1.8,5.9Zm-6.9-7.3a5.3,5.3,0,0,0-3.9,1.5,7.3,7.3,0,0,0-1.7,4.2h10.6a6.1,6.1,0,0,0-1.4-4.2A4.5,4.5,0,0,0,536.6,139.8Zm18.9-1.7c4,0,6,2.2,6,6.5v10.5h-2.1V144.7a5.3,5.3,0,0,0-1-3.6,4,4,0,0,0-3.1-1.1,5.5,5.5,0,0,0-4,1.5,5.7,5.7,0,0,0-1.4,4v9.6h-2.1V138.5h2v2.9a5.4,5.4,0,0,1,2.3-2.4A6.4,6.4,0,0,1,555.5,138.1Zm18.1,15.5h1.5v1.7h-1.7a5.1,5.1,0,0,1-5.6-5.7v-9.4h-3.3v-1.7h3.3v-5.1h2.1v5.1h4.8v1.7h-4.8v9.2a4.6,4.6,0,0,0,.9,3.1A3.8,3.8,0,0,0,573.6,153.6Z"/><path class="cls-2" d="M378.3,131h7.8c3.8,0,6.7,1.1,8.8,3.2s3.1,5,3.1,8.9-1,6.8-3.1,8.9-5,3.1-8.8,3.1h-7.8Zm7.7,22.3c3.2,0,5.7-.9,7.3-2.6s2.5-4.3,2.5-7.6c0-6.8-3.3-10.2-9.8-10.2h-5.6v20.4Zm30.5-6.2H403.9a7.1,7.1,0,0,0,1.7,4.8,5.6,5.6,0,0,0,4.3,1.6,8.5,8.5,0,0,0,5.5-2l.8,1.6a7.6,7.6,0,0,1-2.8,1.6,10.3,10.3,0,0,1-3.5.6,7.7,7.7,0,0,1-5.9-2.2,8.8,8.8,0,0,1-2.2-6.3,10.6,10.6,0,0,1,.9-4.5,7.1,7.1,0,0,1,2.8-3.1,7.7,7.7,0,0,1,4-1.1,6.1,6.1,0,0,1,5.1,2.2c1.3,1.4,1.9,3.3,1.9,5.9Zm-7-7.3a5,5,0,0,0-3.8,1.5,6.7,6.7,0,0,0-1.7,4.2h10.6a6.6,6.6,0,0,0-1.4-4.2A4.7,4.7,0,0,0,409.5,139.8Zm23.1-1.3h2.1l-7.1,16.6h-2.1l-7.1-16.6h2.2l6,14.5Zm18.8,8.6H438.8a7.7,7.7,0,0,0,1.6,4.8,5.8,5.8,0,0,0,4.4,1.6,8.9,8.9,0,0,0,5.5-2l.8,1.6a7.6,7.6,0,0,1-2.8,1.6,10.3,10.3,0,0,1-3.5.6,8.1,8.1,0,0,1-6-2.2,9.3,9.3,0,0,1-2.2-6.3,10.6,10.6,0,0,1,1-4.5,7.5,7.5,0,0,1,2.7-3.1,8.1,8.1,0,0,1,4.1-1.1,6.1,6.1,0,0,1,5.1,2.2,8.7,8.7,0,0,1,1.9,5.9Zm-7-7.3a4.9,4.9,0,0,0-3.8,1.5,6.7,6.7,0,0,0-1.7,4.2h10.5a6.6,6.6,0,0,0-1.3-4.2A4.7,4.7,0,0,0,444.4,139.8Zm11.2,15.3V131h2.1v24.1Zm14.1.2a7.4,7.4,0,0,1-4-1,6.6,6.6,0,0,1-2.7-3,9.5,9.5,0,0,1-1-4.6,9.3,9.3,0,0,1,1-4.5,6.6,6.6,0,0,1,2.7-3,7.5,7.5,0,0,1,4-1.1,7.7,7.7,0,0,1,4,1.1,7.2,7.2,0,0,1,2.7,3,10.6,10.6,0,0,1,.9,4.5,10.8,10.8,0,0,1-.9,4.6,7.2,7.2,0,0,1-2.7,3A7.7,7.7,0,0,1,469.7,155.3Zm0-1.8a5,5,0,0,0,4-1.7,7.8,7.8,0,0,0,1.5-5.1,7.2,7.2,0,0,0-1.5-4.9,4.7,4.7,0,0,0-4-1.9,4.6,4.6,0,0,0-4,1.9,7.2,7.2,0,0,0-1.5,4.9,8.4,8.4,0,0,0,1.4,5.1A5.2,5.2,0,0,0,469.7,153.5Zm19.7-15.4a7.1,7.1,0,0,1,3.9,1.1,6.7,6.7,0,0,1,2.6,3.1,11.7,11.7,0,0,1,0,9,7,7,0,0,1-2.6,3,7.1,7.1,0,0,1-3.9,1,6.7,6.7,0,0,1-3.5-.8,6.3,6.3,0,0,1-2.2-2.6v8.4h-2.1V138.5h2.1v3a6,6,0,0,1,2.2-2.5A6.8,6.8,0,0,1,489.4,138.1Zm-.3,15.4a5.2,5.2,0,0,0,4.1-1.7,7.6,7.6,0,0,0,1.5-5,7.5,7.5,0,0,0-1.5-5,4.7,4.7,0,0,0-4-1.9,5,5,0,0,0-4.1,1.8,8.2,8.2,0,0,0-1.4,5,8.4,8.4,0,0,0,1.4,5.1A5.1,5.1,0,0,0,489.1,153.5Zm30-15.4c3.6,0,5.5,2.2,5.5,6.5v10.5h-2.1V144.7a5.6,5.6,0,0,0-.9-3.6,3.5,3.5,0,0,0-2.8-1.1,4.6,4.6,0,0,0-3.6,1.5,5.7,5.7,0,0,0-1.3,4v9.6h-2.1V144.7a5.6,5.6,0,0,0-.9-3.6,3.5,3.5,0,0,0-2.8-1.1,4.6,4.6,0,0,0-3.6,1.5,6.2,6.2,0,0,0-1.3,4v9.6h-2.1V138.5h2.1v2.8a5.7,5.7,0,0,1,2-2.3,5.9,5.9,0,0,1,3.2-.9q4.1,0,5.1,3.3a5.6,5.6,0,0,1,2.2-2.4A6.4,6.4,0,0,1,519.1,138.1Zm24.4,9H531a7.1,7.1,0,0,0,1.6,4.8,5.7,5.7,0,0,0,4.4,1.6,8.4,8.4,0,0,0,5.4-2l.8,1.6a6.9,6.9,0,0,1-2.8,1.6,9.7,9.7,0,0,1-3.4.6,8.1,8.1,0,0,1-6-2.2,8.8,8.8,0,0,1-2.2-6.3,9.3,9.3,0,0,1,1-4.5,6.3,6.3,0,0,1,2.7-3.1,7.8,7.8,0,0,1,4.1-1.1,6.4,6.4,0,0,1,5.1,2.2,8.7,8.7,0,0,1,1.8,5.9Zm-6.9-7.3a5.3,5.3,0,0,0-3.9,1.5,7.3,7.3,0,0,0-1.7,4.2h10.6a6.1,6.1,0,0,0-1.4-4.2A4.5,4.5,0,0,0,536.6,139.8Zm18.9-1.7c4,0,6,2.2,6,6.5v10.5h-2.1V144.7a5.3,5.3,0,0,0-1-3.6,4,4,0,0,0-3.1-1.1,5.5,5.5,0,0,0-4,1.5,5.7,5.7,0,0,0-1.4,4v9.6h-2.1V138.5h2v2.9a5.4,5.4,0,0,1,2.3-2.4A6.4,6.4,0,0,1,555.5,138.1Zm18.1,15.5h1.5v1.7h-1.7a5.1,5.1,0,0,1-5.6-5.7v-9.4h-3.3v-1.7h3.3v-5.1h2.1v5.1h4.8v1.7h-4.8v9.2a4.6,4.6,0,0,0,.9,3.1A3.8,3.8,0,0,0,573.6,153.6Z"/><path class="cls-1" d="M665.4,101.7a31.9,31.9,0,0,0,14.2-2.9c7.5-3.4,16.4-12.1,19.2-24.2,1.7-8.2,1.7-17.9-5.7-25.9C705.6,57.2,707,67.9,707,72.6a38.4,38.4,0,0,1-2.2,12.1c-3.2,8.5-9.2,14.5-18.2,17.8C674.1,106.2,665.4,101.7,665.4,101.7Z"/><path class="cls-1" d="M684.7,44.5a31.3,31.3,0,0,0-14.3,2.8C663,50.7,654,59.5,651.3,71.5c-1.7,8.3-1.7,17.9,5.7,25.9-12.6-8.5-14-19.2-14-23.9s.5-7.6,2.3-12.1c3.2-8.5,9.2-14.5,18.2-17.8C675.9,39.9,684.7,44.5,684.7,44.5Z"/><path class="cls-1" d="M569,45.1a35,35,0,0,0-15-3.8h-2.8a29.7,29.7,0,0,0-10.5,2.1c-9.1,3.4-15.1,9.3-18.6,18.1a38.8,38.8,0,0,0-2.1,14,27.2,27.2,0,0,0,3.3,11.9h0a29.9,29.9,0,0,0,16.5,15,32.5,32.5,0,0,1-5.3-4.7c-5.7-6-8.2-16.5-6.1-26.3s9.7-19.5,20.8-23.8h.1a35.2,35.2,0,0,1,11.8-2,37.9,37.9,0,0,1,7.1.7Z"/><path class="cls-1" d="M615.8,41.3h-9.1V105h9.1Z"/><path class="cls-1" d="M449.9,104.9h10.8l24.5-46-6.3-12.5Z"/><path class="cls-1" d="M748.8,83.4h2.3L762.4,105h9.9l-13.2-24s11.2-5.3,11.2-18.6a21,21,0,0,0-21.1-21H729.8v6.8h19.3a14.2,14.2,0,1,1,0,28.4H729.8v6.9Z"/><path class="cls-1" d="M346.7,41.3h-9.2V105h9.2Z"/><path class="cls-1" d="M282.8,41.3h-9.1V105h9.1Z"/><path class="cls-1" d="M185.3,104.9h10.8l24.6-46-6.3-12.5Z"/><path class="cls-1" d="M402.2,83.4h2.3L415.8,105h9.8l-13.2-24s11.2-5.3,11.2-18.6a21,21,0,0,0-21.1-21H383.2v6.8h19.3a14.2,14.2,0,1,1,0,28.4H383.2v6.9Z"/></svg>