<svg height="450pt" viewBox="-25 0 450 450.428" width="450pt" xmlns="http://www.w3.org/2000/svg"><path fill="#20133f" d="m391.214844 216.675781h-80.109375c-4.652344 0-8.441407 3.789063-8.441407 8.441407v41.183593c0 25.289063 19.921876 46.011719 44.898438 47.304688v37.832031c-2.386719 37.765625-33.847656 67.765625-72.203125 67.765625-39.902344 0-72.363281-32.464844-72.363281-72.363281h-.007813v-33.226563c32.136719-1.132812 57.933594-27.609375 57.933594-60.015625v-53.851562c0-5.03125-4.097656-9.128906-9.128906-9.128906h-48.804688v-83.027344c9.546875-1.707032 16.824219-10.054688 16.824219-20.085938s-7.277344-18.375-16.824219-20.082031v-26.371094h7.859375c3.152344 0 5.851563-2.253906 6.417969-5.359375l5.09375-28c.34375-1.910156-.171875-3.859375-1.414063-5.347656-1.242187-1.488281-3.066406-2.34375-5.007812-2.34375h-31.96875c-1.941406 0-3.765625.855469-5.007812 2.34375-1.246094 1.492188-1.757813 3.4375-1.414063 5.347656l5.09375 28c.5625 3.105469 3.261719 5.359375 6.417969 5.359375h6.730468v26.371094c-9.546874 1.710937-16.820312 10.054687-16.820312 20.085937s7.273438 18.378907 16.820312 20.085938v83.027344h-48.792968c-5.03125 0-9.128906 4.097656-9.128906 9.128906v53.851562c0 32.402344 25.792968 58.875 57.921874 60.015626v33.453124c-.128906 39.796876-32.535156 72.132813-72.359374 72.132813-39.902344 0-72.363282-32.460937-72.363282-72.363281v-33.199219c25.550782-.65625 46.140625-21.628906 46.140625-47.335937v-41.183594c0-4.652344-3.789062-8.441406-8.441406-8.441406h-80.109375c-4.652344 0-8.441406 3.789062-8.441406 8.441406v41.183594c0 24.867187 19.265625 45.304687 43.652344 47.207031v38.230469h.167968c2.539063 41.597656 37.171875 74.664062 79.394532 74.664062 32.09375 0 59.789062-19.109375 72.359374-46.539062v30.054687c-9.546874 1.707031-16.820312 10.054687-16.820312 20.085937 0 11.257813 9.160156 20.421876 20.421875 20.421876 11.257813 0 20.421875-9.164063 20.421875-20.421876 0-10.03125-7.277344-18.378906-16.824219-20.085937v-30.082031c12.5625 27.441406 40.269531 46.566406 72.371094 46.566406 42.222656 0 76.855469-33.066406 79.394531-74.664062h.003906v-.050782c.097657-1.605468.164063-3.21875.164063-4.851562h-.164063v-33.230469c24.976563-1.292969 44.898438-22.015625 44.898438-47.304687v-41.183594c0-4.65625-3.785156-8.445313-8.441406-8.445313zm-343.628906 89.792969c-22.152344 0-40.171876-18.019531-40.171876-40.167969v-41.183593c0-.683594.558594-1.242188 1.242188-1.242188h80.109375c.683594 0 1.242187.558594 1.242187 1.242188v41.183593c0 22.148438-18.019531 40.167969-40.167968 40.167969zm142.035156-272.621094-4.84375-26.648437h30.351562l-4.84375 26.648437zm-3.453125 53.65625c0-7.289062 5.929687-13.222656 13.222656-13.222656 7.289063 0 13.222656 5.933594 13.222656 13.222656 0 7.292969-5.933593 13.222656-13.222656 13.222656s-13.222656-5.929687-13.222656-13.222656zm26.445312 342.496094c0 7.289062-5.933593 13.222656-13.222656 13.222656-7.292969 0-13.222656-5.933594-13.222656-13.222656s5.929687-13.222656 13.222656-13.222656c7.289063 0 13.222656 5.933594 13.222656 13.222656zm-11.765625-123.53125h-2.90625c-29.152344 0-52.871094-23.71875-52.871094-52.871094v-53.851562c0-1.0625.867188-1.925782 1.929688-1.925782h104.792969c1.0625 0 1.929687.863282 1.929687 1.925782v53.851562c-.003906 29.152344-23.71875 52.871094-52.875 52.871094zm191.609375-40.167969c0 22.148438-18.019531 40.167969-40.171875 40.167969h-2.25c-22.148437 0-40.171875-18.019531-40.171875-40.167969v-41.183593c0-.683594.558594-1.242188 1.242188-1.242188h80.109375c.683594 0 1.242187.558594 1.242187 1.242188zm0 0"/></svg>