<svg height="427pt" viewBox="-9 0 427 427.955" width="427pt" xmlns="http://www.w3.org/2000/svg"><path fill="#20133f" d="m60.199219 171.289062h125.414062v-125.414062h-125.414062zm7.203125-118.214843h111.011718v111.015625h-111.011718zm0 0"/><path fill="#20133f" d="m225.128906 171.289062h125.425782v-125.414062h-125.425782zm7.203125-118.214843h111.023438v111.015625h-111.023438zm0 0"/><path d="m350.554688 210.804688h-125.425782v125.425781h125.425782zm-7.199219 118.226562h-111.023438v-111.027344h111.023438zm0 0"/><path fill="#20133f" d="m185.613281 210.804688h-125.414062v125.425781h125.414062zm-7.199219 118.226562h-111.011718v-111.027344h111.011718zm0 0"/><path fill="#20133f" d="m394.363281 387.152344c3.441407-3.699219 5.5625-8.636719 5.5625-14.074219 0-11.40625-9.28125-20.691406-20.6875-20.691406h-5.324219v-322.671875h11.15625c8.191407 0 14.855469-6.664063 14.855469-14.855469 0-8.195313-6.664062-14.859375-14.855469-14.859375h-359.382812c-8.191406 0-14.859375 6.664062-14.859375 14.859375 0 8.191406 6.667969 14.855469 14.859375 14.855469h11.15625v322.671875h-5.324219c-11.410156 0-20.691406 9.28125-20.691406 20.691406 0 5.4375 2.125 10.375 5.5625 14.070313-9.109375 2.167968-15.914063 10.351562-15.914063 20.113281 0 11.410156 9.285157 20.691406 20.691407 20.691406h368.417969c11.410156 0 20.695312-9.28125 20.695312-20.691406 0-9.761719-6.804688-17.945313-15.917969-20.109375zm-368.675781-364.636719c-4.222656 0-7.660156-3.4375-7.660156-7.65625 0-4.222656 3.4375-7.660156 7.660156-7.660156h359.382812c4.222657 0 7.65625 3.4375 7.65625 7.660156s-3.433593 7.65625-7.65625 7.65625zm183.285156 164.929687v-157.730468h157.742188v157.730468zm157.742188 7.199219v157.742188h-157.742188v-157.742188zm-322.671875-7.199219v-157.730468h157.730469v157.730468zm157.730469 7.199219v157.742188h-157.730469v-157.742188zm-170.253907 164.941407h347.71875c7.4375 0 13.488281 6.054687 13.488281 13.492187 0 7.441406-6.050781 13.492187-13.488281 13.492187h-347.71875c-7.4375 0-13.492187-6.050781-13.492187-13.492187 0-7.4375 6.054687-13.492187 13.492187-13.492187zm358.066407 61.171874h-368.417969c-7.4375 0-13.492188-6.054687-13.492188-13.492187 0-7.441406 6.054688-13.492187 13.492188-13.492187h368.417969c7.441406 0 13.496093 6.050781 13.496093 13.492187-.003906 7.4375-6.054687 13.492187-13.496093 13.492187zm0 0"/></svg>