<svg height="397pt" viewBox="0 -10 397.081 397" width="397pt" xmlns="http://www.w3.org/2000/svg"><path fill="#20133f" d="m383.449219 199.28125h-3.9375v-130.804688l-.0625-3.601562h-.234375c-3.347656-36.625-33.960938-64.8359375-71.152344-64.8359375-28.878906 0-55.195312 17.7773435-66.117188 44.4257815-4.101562.085937-8.191406.953125-12.082031 2.609375-7.988281 3.402343-14.175781 9.71875-17.417969 17.777343l-.179687.445313c-.9375 2.328125-.910156 4.886719.074219 7.195313.980468 2.308593 2.808594 4.097656 5.136718 5.035156l42.890626 17.257812c1.144531.460938 2.328124.679688 3.492187.679688 3.726563 0 7.261719-2.230469 8.738281-5.894532l.179688-.449218c3.242187-8.054688 3.152344-16.894532-.253906-24.882813-1.527344-3.585937-3.648438-6.808593-6.242188-9.5625 6.832031-16.972656 23.363281-28.234375 41.78125-28.234375 24.839844 0 45.050781 20.207032 45.050781 45.046875v127.792969h-209.3125c-1.886719-3.535156-5.609375-5.949219-9.890625-5.949219h-49.597656c-4.28125 0-8.003906 2.414063-9.886719 5.949219h-60.78125c-3.632812 0-7.054687 1.417969-9.648437 3.996094-2.574219 2.574218-3.996094 5.996094-3.996094 9.636718 0 7.515626 6.121094 13.632813 13.644531 13.632813h9.601563v118.367187c0 9.136719 7.4375 16.574219 16.582031 16.574219h13.285156v9.992188c0 3.199219 2.601563 5.804687 5.800781 5.804687h11.390626c3.199218 0 5.804687-2.605468 5.804687-5.804687v-9.992188h252.203125v9.992188c0 3.199219 2.605469 5.804687 5.804688 5.804687h11.390624c3.199219 0 5.800782-2.605468 5.800782-5.804687v-9.992188h11.777344c9.144531 0 16.585937-7.4375 16.585937-16.574219v-118.367187h3.777344c3.640625 0 7.0625-1.417969 9.640625-3.996094 2.574218-2.574219 3.992187-5.996093 3.992187-9.636719-.003906-7.515624-6.117187-13.632812-13.632812-13.632812zm-117.355469-112.839844-.179688.445313c-.449218 1.125-1.738281 1.671875-2.859374 1.21875l-42.890626-17.257813c-.542968-.21875-.972656-.636718-1.203124-1.175781-.226563-.542969-.234376-1.140625-.011719-1.6875l.175781-.445313c5.210938-12.953124 19.992188-19.25 32.933594-14.035156 6.273437 2.523438 11.191406 7.335938 13.839844 13.558594 2.652343 6.21875 2.722656 13.101562.195312 19.378906zm41.96875-67.199218c-20.574219 0-39.117188 12.121093-47.539062 30.601562-1.800782-1.183594-3.730469-2.199219-5.773438-3.019531-1.730469-.699219-3.5-1.230469-5.285156-1.621094 10.292968-22.855469 33.355468-37.960937 58.597656-37.960937 34.484375 0 62.679688 26.96875 64.195312 61.394531l.054688.917969v129.722656h-12v-127.789063c0-28.808593-23.4375-52.246093-52.25-52.246093zm-227.75 185.289062c0-2.207031 1.792969-4 4-4h49.597656c2.207032 0 4.003906 1.792969 4.003906 4v83.898438h-57.601562zm0 91.097656h57.601562v3.902344c0 2.203125-1.796874 4-4.003906 4h-49.597656c-2.207031 0-4-1.796875-4-4zm-57.066406-76.28125h-9.601563c-3.550781 0-6.445312-2.886718-6.445312-6.433594 0-1.714843.671875-3.328124 1.878906-4.539062 1.230469-1.21875 2.851563-1.890625 4.566406-1.890625h59.46875v12.859375h-49.867187zm49.867187 7.199219v29.785156h-42.667969v-29.785156zm-4.207031 143.535156h-8.59375v-8.59375h8.59375zm275.203125 0h-8.597656v-8.59375h8.597656zm28.359375-25.167969c0 5.167969-4.210938 9.371094-9.386719 9.371094h-323.253906c-5.171875 0-9.382813-4.203125-9.382813-9.371094v-81.382812h42.667969v36c0 6.175781 5.023438 11.199219 11.199219 11.199219h49.597656c6.179688 0 11.203125-5.023438 11.203125-11.199219v-36h227.355469zm0-88.582031h-227.355469v-29.785156h227.355469zm15.527344-38.871093c-1.214844 1.214843-2.832032 1.886718-4.546875 1.886718h-238.335938v-12.863281h238.335938c3.546875 0 6.429687 2.882813 6.429687 6.429687 0 1.71875-.667968 3.332032-1.882812 4.546876zm0 0"/><path d="m220.671875 141.625-6.707031-2.617188 15.910156-40.703124 6.703125 2.617187zm0 0"/><path fill="#20133f" d="m244.097656 109.355469 6.707032 2.621093-12.191407 31.203126-6.707031-2.621094zm0 0"/><path fill="#20133f" d="m206.507812 130.617188-6.707031-2.621094 12.195313-31.203125 6.703125 2.621093zm0 0"/></svg>